<?xml version="1.0" encoding="UTF-8" standalone="no"?>
<svg
   xmlns:dc="http://purl.org/dc/elements/1.1/"
   xmlns:cc="http://creativecommons.org/ns#"
   xmlns:rdf="http://www.w3.org/1999/02/22-rdf-syntax-ns#"
   xmlns:svg="http://www.w3.org/2000/svg"
   xmlns="http://www.w3.org/2000/svg"
   xmlns:sodipodi="http://sodipodi.sourceforge.net/DTD/sodipodi-0.dtd"
   xmlns:inkscape="http://www.inkscape.org/namespaces/inkscape"
   width="194.81305"
   height="210.30336"
   version="1.1"
   id="svg2"
   inkscape:version="0.91 r13725"
   sodipodi:docname="logo_white.svg">
  <metadata
     id="metadata15">
    <rdf:RDF>
      <cc:Work
         rdf:about="">
        <dc:format>image/svg+xml</dc:format>
        <dc:type
           rdf:resource="http://purl.org/dc/dcmitype/StillImage" />
        <dc:title></dc:title>
      </cc:Work>
    </rdf:RDF>
  </metadata>
  <defs
     id="defs13" />
  <sodipodi:namedview
     pagecolor="#ffffff"
     bordercolor="#666666"
     borderopacity="1"
     objecttolerance="10"
     gridtolerance="10"
     guidetolerance="10"
     inkscape:pageopacity="0"
     inkscape:pageshadow="2"
     inkscape:window-width="1276"
     inkscape:window-height="733"
     id="namedview11"
     showgrid="false"
     fit-margin-top="0"
     fit-margin-left="0"
     fit-margin-right="0"
     fit-margin-bottom="0"
     inkscape:zoom="1.7811321"
     inkscape:cx="110.94881"
     inkscape:cy="79.227267"
     inkscape:window-x="0"
     inkscape:window-y="0"
     inkscape:window-maximized="0"
     inkscape:current-layer="g6" />
  <desc
     id="desc4">Logo of UNICAMP</desc>
  <g
     id="g6"
     transform="translate(-0.62057666,0)">
    <path
       id="path24"
       d="m 161.37312,0 c -5.29605,0 -9.70575,4.28616 -9.70575,9.58233 0,5.29602 4.4097,9.70573 9.70575,9.70573 5.29604,0 9.58234,-4.40971 9.58234,-9.70573 C 170.95546,4.2862 166.66924,0 161.37312,0 m -22.26018,191.0109 c -5.29604,0 -9.59991,4.30377 -9.59991,9.59991 0,5.28282 4.30388,9.69255 9.59991,9.69255 5.28285,0 9.58231,-4.40976 9.58231,-9.69255 0,-5.29614 -4.29945,-9.59991 -9.58231,-9.59991"
       inkscape:connector-curvature="0"
       style="fill:#ed1d24;fill-rule:evenodd"
       sodipodi:nodetypes="csssccsssc" />
    <path
       id="path28"
       d="m 72.74675,126.97361 c 0.23389,-2.86102 0.78493,-5.72202 1.65382,-8.60069 L 1.64923,87.95301 C 0,100.96693 0.33514,114.08321 2.64582,126.97362 Z M 158.17159,25.35282 128.52074,96.22209 c 2.53995,1.32644 4.85068,2.86102 7.05553,4.74484 l 59.85735,-59.75681 c -3.09105,-3.95992 -6.29248,-7.58928 -9.8114,-11.02 -3.85869,-3.62901 -8.05212,-6.93629 -12.46185,-9.79837 -3.73944,4.18075 -9.48085,6.06352 -14.98872,4.96109 M 81.56623,105.48249 22.48957,46.40478 C 13.77599,56.76759 7.16566,68.76905 3.0911,81.67714 l 73.85376,30.86085 c 1.20826,-2.53996 2.86208,-4.9565 4.62137,-7.05553 m 46.50327,58.82939 8.26807,20.60924 c 6.49104,-1.10419 12.78389,1.76389 16.3028,7.27069 3.54089,-1.65448 7.05978,-3.41487 10.47287,-5.27753 l -27.53696,-27.52751 c -2.31071,1.97556 -4.85495,3.62305 -7.48772,4.95651 m 2.31528,22.81053 -8.15796,-20.39047 c -12.57226,3.85928 -26.12311,1.10414 -36.04071,-7.37657 l -31.96578,31.96509 c 21.15777,11.13008 45.30074,15.20107 68.89267,11.34177 -0.78036,-6.17004 2.08137,-12.2343 7.27178,-15.53981 M 81.672,154.87114 c -1.97556,-2.20485 -3.51895,-4.63896 -4.83727,-7.29185 l -52.14037,21.38884 c 7.27143,7.16493 15.21772,13.56425 23.90943,19.07463 L 81.672,154.87111 Z M 4.40971,133.3765 c 4.08762,10.79147 9.47628,20.93733 15.98077,30.52577 l 54.01009,-22.15439 c -0.86889,-2.75169 -1.41993,-5.51036 -1.65382,-8.37138 z M 93.47695,96.1092 60.40839,15.75306 C 47.7349,22.2614 36.37549,30.97078 26.78879,41.54945 l 59.41638,59.41744 c 2.20486,-1.88383 4.62138,-3.53838 7.27177,-4.85773 m 13.4408,-3.96168 0,-89.51351 C 92.81973,3.41466 79.03957,6.82742 66.13677,12.89095 l 33.17404,80.80169 c 2.43417,-0.78316 4.96111,-1.33 7.60693,-1.54515 M 152.34195,22.80821 C 147.1519,19.28926 144.62497,13.23033 145.60393,7.04369 135.57624,4.28745 125.21343,2.86325 114.86403,2.52392 l 0,89.62358 c 2.63242,0.32102 5.17699,0.76199 7.82282,1.65096 l 29.6551,-70.99031 0,3e-5 0,4e-5 z"
       inkscape:connector-curvature="0"
       style="fill:#ffffff;fill-rule:evenodd"
       sodipodi:nodetypes="ccccccccccccccccccccccccccccccccccccccccccccccccccccccccccc" />
  </g>
</svg>
