<svg version="1" xmlns="http://www.w3.org/2000/svg" width="1365.333" height="1365.333" viewBox="0 0 1024.000000 1024.000000"><path d="M761 83c-34.2 10.4-39.9 53.5-9.5 72.2 5.6 3.5 10.4 4.9 17.7 5.2 35.4 1.8 54.6-41.7 29.6-66.7-7.9-7.9-15.1-11-26.3-11.3-4.9-.1-10.1.1-11.5.6zM546.9 92.4c-.2.2-4.2.7-8.9 1-12.4.9-29.1 2.9-42 5.2-1.4.2-4.1.7-6 1-16.7 2.8-47.9 11.2-68 18.4-13.5 4.9-36 14.1-38.9 15.9-1.2.7-1 2 1.2 7.2 12.6 31.1 16.8 41.4 18.1 44.2 1.2 2.8 15.7 38.1 28.3 69.2 2.5 6 5.1 12.3 5.8 14 1.2 2.9 22.4 54.4 44.1 107.5 5.8 14 12.3 29.8 14.4 35 2.2 5.2 7.3 17.8 11.5 28 11 27 10.6 26.1 12.4 25.6 3.1-.9 10.6-2.8 12.4-3.2 1-.2 2.6-.5 3.5-.8.9-.3 4.1-.8 7.1-1.1 3-.3 5.7-.8 6-1 .8-.4.7-365.2 0-366-.3-.3-.8-.3-1-.1zM581 275.5c0 174.1.1 183.5 1.8 183.6 4.1.2 21.6 3.7 26.3 5.3l3.8 1.3 4.2-10.1c2.3-5.6 5.9-14.2 7.9-19.1 2.1-5 11.3-27 20.5-49s28.6-68.6 43.2-103.5c14.6-34.9 27.1-64.9 27.8-66.5.7-1.7 2.9-6.8 4.8-11.5s5.6-13.4 8.1-19.3l4.6-10.9-7.5-7.1c-7.8-7.5-13.2-15.5-16.5-24.4-3.2-8.6-4.7-18.6-4-26.6.3-3.2.3-6.2 0-6.7-.5-.7-7.8-2.7-22.5-6-2.7-.7-5.9-1.4-7-1.6-4.8-1.1-22.4-4.3-27-4.8-2.7-.4-5.7-.9-6.5-1.1-.8-.2-4-.6-7.1-1-3.1-.3-6.5-.7-7.5-.9-2.9-.6-23.5-2.2-39.1-3.1L581 92v183.5zM346.2 152.8c-5.7 3.1-11.1 6.2-12 6.7-1 .6-3.9 2.3-6.7 4-10.6 6.2-39.6 26.2-46 31.6-1.1 1-7.6 6.4-14.5 12.1-12.2 10-46 42.7-46 44.4 0 .5 54.6 55.4 121.3 122.1l121.2 121.2 4.4-3.5c6.4-5 20.2-14 22.9-14.8 3.1-1 3-1.2-2.4-13.4-1.3-2.9-2.4-5.4-2.4-5.7 0-.6-20.7-51.4-22.4-55-.8-1.7-6.1-14.3-11.7-28-16.8-41.3-22-53.9-23.5-56.9-.8-1.6-1.4-3.3-1.4-3.8s-.8-2.8-1.9-5.1c-1-2.3-4.4-10.5-7.6-18.2-3.1-7.7-6.3-15.4-7-17-.7-1.7-4.1-9.8-7.4-18-3.4-8.3-6.7-16.1-7.3-17.5-2.1-4.8-2.8-6.6-11.1-27-21.8-53.5-26.3-64-27.2-64-.5 0-5.7 2.6-11.3 5.8zM813.7 170.5c-12.7 11.8-35 18.6-51.5 15.5l-4.1-.7-1.6 4.1c-.9 2.3-2.3 5.4-3 7.1-1.4 3.1-10.7 25.2-19.5 46.5-2.8 6.9-5.9 14.1-6.7 16-2.6 6.2-3.2 7.4-5.9 14-1.4 3.6-3.3 8.1-4.1 10-.8 1.9-1.9 4.4-2.3 5.5-.5 1.1-2.2 5.1-3.8 9-1.7 3.8-8.7 20.7-15.7 37.5s-13.3 31.8-14 33.5c-.8 1.6-2.5 5.7-3.8 9-1.3 3.3-11.1 26.7-21.6 51.9-15 35.8-19 46.1-17.9 46.8.7.5 2.7 1.6 4.3 2.5 4.3 2.3 16.5 10.6 20 13.6 1.6 1.5 3 2.5 3.1 2.4 1.8-1.6 241.4-241 242.8-242.5 1.9-2.1 1.8-2.2-5.7-11.4-14.2-17.4-30.1-33.9-46.7-48.3-10.6-9.1-34.4-26.5-36.4-26.5-.6 0-3.2 2.1-5.9 4.5zM202.4 272.8c-.6.4-4.4 5-8.5 10.2-24.1 30.4-45.6 67.8-59.9 104-6.6 16.7-10.3 28.1-9.4 29 .5.4 3.8 2 7.4 3.5 18.2 7.5 23.7 9.7 25.5 10.6 2.7 1.1 40.9 17.2 71.5 29.9 13.5 5.6 25.9 10.8 27.5 11.4 6.1 2.6 9.4 4 30.5 12.8 11.8 4.9 22.9 9.5 24.5 10.2 1.7.8 7.1 3 12 5.1 5 2 10.4 4.3 12 5 1.7.7 19.4 8.1 39.5 16.5s39.7 16.6 43.5 18.2c5.5 2.3 7.2 2.7 7.8 1.6 7.2-12.2 9.7-16.2 13.4-21 2.3-3.1 4.3-6 4.3-6.5 0-1.7-240.5-241.2-241.6-240.5zM117.9 442.1c-.7 3.4-.8 4.4-2.4 20.4-1 10.1-1.9 31.4-1.9 45.5.1 14.9 1.1 41.8 1.8 45.7.2 1 .7 5.2 1 9.3.4 4.1 1.2 10.6 1.7 14.5.6 3.8 1.2 7.9 1.3 9 .2 1.1.7 4.6 1.1 7.8.4 3.1 1.2 6 1.7 6.3 1 .7 285.7.9 286.2.3.2-.2.6-3 1-6.1.3-3.1 1.5-9.9 2.7-15 1.1-5.1 2.1-10.4 2.2-11.7.2-2.3-3.1-3.8-54.3-25.2-30-12.5-56.1-23.4-58-24.2-1.9-.9-17.2-7.3-34-14.2-16.8-7-31.8-13.3-33.5-14.1-1.6-.7-11.3-4.7-21.5-8.9s-19.8-8.3-21.5-9c-2.6-1.2-68.6-28.8-72.2-30.2-.7-.3-1.3-.4-1.4-.2zM129 627.7c0 .1 2.9 7.1 6.4 15.5 7.9 18.9 15.7 35.5 24.2 51.3 6.4 11.9 7.4 13.8 16.8 29.7 6.1 10.3 17.7 27.8 18.4 27.8.6 0 38.8-15.6 45.7-18.6 1.7-.7 9.1-3.7 16.5-6.7s21.4-8.7 31-12.7c9.6-4 23.6-9.7 31-12.7 7.4-3 14.9-6 16.5-6.8 1.7-.7 19.2-7.9 39-16 31.6-12.9 39.2-16.1 40.3-17 .1-.1-.9-4.9-2.3-10.6-1.4-5.7-2.8-13.1-3.1-16.4-.4-3.3-.8-6.2-1.1-6.5-.4-.5-279.3-.8-279.3-.3zM414 690.1c-5.2 2.1-10.4 4.3-11.5 4.8-1.1.5-8.3 3.5-16 6.6-7.7 3.2-17.6 7.2-22 9.1-4.4 1.8-29.6 12.1-56 22.9-26.4 10.8-49.3 20.3-50.9 21.1-1.6.8-3.3 1.4-3.8 1.4s-3.3 1.1-6.1 2.3c-2.9 1.3-11.8 5-19.9 8.3-8.1 3.2-14.8 6.3-14.8 6.7 0 .5 1.3 2.1 2.8 3.5 25.2 23.5 36.7 33.3 55.7 47.6 9.3 7 33.3 23.7 37.2 25.9 1.2.7 135.2-132.9 135.2-134.8 0-.6-2.3-4.2-5.2-8-2.8-3.9-7-10.3-9.2-14.3-2.2-3.9-4.4-7.1-5-7.1-.5 0-5.3 1.8-10.5 4zM398.1 799.4l-65.3 65.3 11.4 5.7c29.9 14.5 65.9 27.5 94.6 34.1 6.2 1.5 26.8 5.6 29.9 6 2.1.4 6.3 1 9.3 1.5 3 .6 8 1.2 11 1.6 3 .3 7.1.7 9 1 20.6 2.5 77.7 2.5 90.7-.1 1-.1 4.7-.6 8.3-1 3.6-.4 7.2-.8 8-1 .8-.1 3.3-.6 5.6-.9l4-.7-.2-7.4c-.6-20 9.6-40.6 26.5-53.7l3.5-2.7-7.3-18.3c-4.1-10.1-8-19.7-8.7-21.3-.7-1.7-4.6-11.3-8.6-21.5-4.1-10.2-7.8-19.2-8.3-20.1-.9-1.5-1.8-1.5-10.2.6-13 3.2-15.7 3.6-33.8 4-38.6.8-67.1-8.9-102.4-35.2-1.4-1.1-10.3 7.4-67 64.1zM659 739.1c-3.6 2.7-10.4 7.3-15.2 10.1-4.9 2.8-8.8 5.2-8.8 5.4 0 .3.4 1.2.9 2.2.5.9 2.6 6 4.6 11.2 2.1 5.2 4.4 11.1 5.2 13 .8 1.9 1.9 4.4 2.3 5.5.5 1.1 5.3 13.1 10.7 26.7l9.8 24.7 8.4-.3c15.7-.5 29.7 3.8 42.1 12.9 4.8 3.5 10.9 9.7 14.6 14.9l2 2.8 19.5-9.7c10.7-5.4 20.2-10.3 21.1-11 1.6-1-4.2-7.2-50.6-53.6-28.9-28.8-54.2-54.1-56.3-56.1l-3.8-3.7-6.5 5zM671 864.6c-11.3 2.6-20.9 10.4-26.3 21.4-3 6-3.2 7.3-3.2 16.5s.3 10.5 3.2 16.5c7.3 15.2 19 22.5 35.8 22.5 8 0 9.7-.3 15.5-3.1 24.8-11.8 30.9-43.9 11.9-63.2-5.5-5.6-10.9-8.7-18.4-10.5-7.1-1.8-11.1-1.8-18.5-.1z"/></svg>